<?xml version="1.0" encoding="utf-8"?>
<!-- Generator: Adobe Illustrator 18.1.0, SVG Export Plug-In . SVG Version: 6.00 Build 0)  -->
<svg version="1.1" id="Layer_1" xmlns="http://www.w3.org/2000/svg" xmlns:xlink="http://www.w3.org/1999/xlink" x="0px" y="0px"
	 viewBox="0 0 2732 1392" enable-background="new 0 0 2732 1392" xml:space="preserve">
<path fill="#FFFFFF" d="M1363.7,551.8c0,23.6,0,410.9,0,426.7s4.8,158,208.6,158c14.3,0,101.2-4.8,101.2-66.3c0-17.4,0-33.2,0-33.2
	s0.4-12.2-18.2-12.2c-18.7,0-27.6,0-39.4,0c-11.8,0-75.7-5.8-75.7-67.6s0-328,0-342.9c0-14.9-15.5-83.8-106.8-83.8
	c-23.2,0-35.9,0-45,0C1379.1,530.5,1363.7,528.2,1363.7,551.8z"/>
<path fill="#FFFFFF" d="M1442.7,307.8c50,0,90.6,40.6,90.6,90.6s-40.6,90.6-90.6,90.6s-90.6-40.6-90.6-90.6
	S1392.7,307.8,1442.7,307.8z"/>
<path fill="#FFFFFF" d="M1739.6,551.8c0,23.6,0,410.9,0,426.7s4.8,158,208.6,158c14.3,0,101.2-4.8,101.2-66.3c0-17.4,0-33.2,0-33.2
	s0.4-12.2-18.2-12.2c-18.7,0-27.6,0-39.4,0s-75.7-5.8-75.7-67.6s0-328,0-342.9c0-14.9-15.5-83.8-106.8-83.8c-23.2,0-35.9,0-45,0
	C1755.1,530.5,1739.6,528.2,1739.6,551.8z"/>
<path fill="#FFFFFF" d="M1818.8,307.8c50,0,90.6,40.6,90.6,90.6s-40.6,90.6-90.6,90.6c-50,0-90.6-40.6-90.6-90.6
	S1768.6,307.8,1818.8,307.8z"/>
<path fill="#FFFFFF" d="M858.1,679.5c0,0-37.1,45.4-32.8,141.8c4.6,96.4,18.7,192.8,146.4,192.8c25.5,0,135.2-0.2,135.2-192.2
	S992.4,626,971.7,626c-20.9,0-170.6-3.5-277.4,79.6c-8.9,7-14.9,7-22,3.9c-7-2.9,1-35.9,23.8-69.7c22.8-33.8,96.4-139.7,306.4-132.3
	c55.8,2.1,296.5,37.9,282.4,331.1c-4.8,98.5-66.5,293.4-315.5,293.4S677.7,976.4,654.9,896.8c-2.9-10.4,5-97.6,81.9-168.3
	c11.2-10.4,75.5-65.1,116.9-63C864.1,666,860.2,677.9,858.1,679.5z"/>
<path fill="#FFFFFF" d="M2299.5,679.5c0,0-37.1,45.4-32.8,141.8c4.6,96.4,18.7,192.8,146.4,192.8c25.5,0,135.2-0.2,135.2-192.2
	S2433.9,626,2413.1,626c-20.9,0-170.6-3.5-277.4,79.6c-8.9,7-14.9,7-22,3.9c-7-2.9,1-35.9,23.8-69.7
	c22.8-33.8,96.4-139.7,306.4-132.3c55.8,2.1,296.5,37.9,282.4,331.1c-4.8,98.5-66.5,293.4-315.5,293.4s-291.7-155.7-314.5-235.3
	c-2.9-10.4,5-97.6,81.9-168.3c11.2-10.4,75.5-65.1,116.9-63C2305.3,666,2301.6,677.9,2299.5,679.5z"/>
<path fill="#FFFFFF" d="M2.1,273c0,10.4,0,739.7,0,756.1s0,94.7,108.2,94.7c13.5,0,35,0,35,0s19.5-2.1,19.5-22.6s0-744.7,0-754
	c0-9.3,2.1-91.6-129.8-91.6C22.6,255.6,2.1,256.6,2.1,273z"/>
<path fill="#FFFFFF" d="M412.8,753.9c0,19.5,0,271.2,0,285.1c0,13.9,8.1,88.7,99.1,88.7c22,0,36.9,0,41.5,0s17.2-3.5,17.2-13.9
	s0-352.2,0-386.9c0-34.6-18.2-222.2-198.6-222.2c-76.1,0-143.7,32.8-182.6,118.6c-5.8,12.6-11.4,38.6-0.4,38.6
	c11.2,0,23.8-14.3,31.7-18.2c7.9-3.9,51.6-19.3,91.4-13.1C330.3,633.7,412.8,660.7,412.8,753.9z"/>
</svg>
