<?xml version="1.0" encoding="utf-8"?>
<!-- Generator: Adobe Illustrator 18.1.0, SVG Export Plug-In . SVG Version: 6.00 Build 0)  -->
<svg version="1.1" id="Layer_1" xmlns="http://www.w3.org/2000/svg" xmlns:xlink="http://www.w3.org/1999/xlink" x="0px" y="0px"
	 viewBox="0 0 100 100" enable-background="new 0 0 100 100" xml:space="preserve">
<g>
	<path fill="#008BD9" d="M65.3,77.6H33.2l-16-27.8l16-27.8h32.1l16,27.8L65.3,77.6z"/>
</g>
<g>
	<path fill="#FFFFFF" d="M39.9,34.5c0,0.4,0,27.1,0,27.7c0,0.6,0,3.5,4,3.5c0.5,0,1.3,0,1.3,0s0.7-0.1,0.7-0.8s0-27.3,0-27.6
		c0-0.3,0.1-3.4-4.8-3.4C40.6,33.9,39.9,33.9,39.9,34.5z"/>
	<path fill="#FFFFFF" d="M54.9,52.1c0,0.7,0,9.9,0,10.4c0,0.5,0.3,3.2,3.6,3.2c0.8,0,1.4,0,1.5,0c0.2,0,0.6-0.1,0.6-0.5
		c0-0.4,0-12.9,0-14.2c0-1.3-0.7-8.1-7.3-8.1c-2.8,0-5.3,1.2-6.7,4.3c-0.2,0.5-0.4,1.4,0,1.4c0.4,0,0.9-0.5,1.2-0.7
		c0.3-0.1,1.9-0.7,3.3-0.5C51.9,47.7,54.9,48.7,54.9,52.1z"/>
</g>
</svg>
