<?xml version="1.0" encoding="utf-8"?>
<!-- Generator: Adobe Illustrator 18.1.0, SVG Export Plug-In . SVG Version: 6.00 Build 0)  -->
<svg version="1.1" id="Layer_1" xmlns:sketch="http://www.bohemiancoding.com/sketch/ns"
	 xmlns="http://www.w3.org/2000/svg" xmlns:xlink="http://www.w3.org/1999/xlink" x="0px" y="0px" viewBox="0 97.5 100 5"
	 enable-background="new 0 97.5 100 5" xml:space="preserve">
<g id="Page-1" sketch:type="MSPage">
	<path id="Shape_1_" sketch:type="MSShapeGroup" fill="none" stroke="#000000" stroke-width="0.1" stroke-miterlimit="10" d="
		M0,101.6c0,0-0.2,0.1,1.7-0.3c2.8-0.6,5.6-1.3,8.3-2c3.8-1,7.6-1.4,11.5-0.4c2.1,0.5,4.1,1.1,6.1,1.7c3.2,0.9,6.5,1.3,9.9,0.6
		c2.2-0.5,4.4-1.1,6.5-1.7c3.9-1.2,8-1.7,12.2-0.6c2.2,0.5,4.2,1.2,6.4,1.7c3.1,0.8,6.2,1.3,9.6,0.6c2-0.4,3.9-0.9,5.8-1.5
		c2.3-0.6,4.5-1.3,7-1.4c3.1-0.2,5.9,0.4,8.6,1.2c2.1,0.6,4.2,1.2,6.3,1.7c1.3,0.3,2.8,0.5,2.8,0.5"/>
</g>
</svg>
